<svg class="origamid-logo" xmlns="http://www.w3.org/2000/svg" width="144" height="25" viewBox="0 0 144 25">
    <path class="origamid-letter" fill="#FFF" d="M12.3 24.6C5.5 24.6 0 19.1 0 12.3 0 5.4 5.5 0 12.3 0c6.9 0 12.3 5.5 12.3 12.4 0 6.7-5.5 12.2-12.3 12.2zm0-21.4c-3.7 0-6.6 2-8 5.3-.5 1.2-.8 2.5-.8 3.8 0 1.3.3 2.6.8 3.8 1.5 3.3 4.4 5.3 8 5.3 3.9 0 6.9-2.2 8.3-5.9.4-1 .6-2.1.6-3.2 0-4.9-3.7-9.1-8.9-9.1zm27 11.6c-.7.3-1.5.4-2.3.4l6.6 8.8h-4.3l-7.8-11h-.1v11H28V.4h7.3c2.2 0 4.6.4 6.3 2C43.1 3.9 43.8 6 43.8 8c0 3.2-1.4 5.8-4.5 6.8zM35.1 3.6h-3.6v9.1h2.4c3.1 0 6.5-.9 6.5-4.6 0-3.1-2.5-4.5-5.3-4.5zM47 24.1V.4h3.5v23.7zM108.7 24.1v-20h-.1l-8 20h-2.1l-8-20h-.1v20H87V.4h5.4l7.1 18.1L106.6.4h5.4v23.7zM116 24.1V.4h3.5v23.7zM140.1 20.7c-2.6 2.6-5.7 3.4-9.2 3.4h-7.6V.4h7.7c3.8 0 7.4 1.2 9.7 4.4 1.5 2.1 2.4 4.9 2.4 7.6 0 2.7-1 6.3-3 8.3zm-1.1-12c-1.4-3.4-4.3-5.1-8-5.1h-4.2V21h4.1c5.4 0 8.7-3.1 8.7-8.6.1-1.3-.2-2.5-.6-3.7z"></path>
    <path class="origamid-g" fill="#A494F5" d="M63.4 15.8v-3.2h16.2v1.5c-1 5.1-4.6 10.3-12.6 10.5h-.5c-1.282 0-2.481-.168-3.596-.504l-.004.004c-5.5-1.6-8.7-6.7-8.7-11.7C54 5.3 59.4 0 66.1 0c4 0 6.8 1.2 9.2 3.4l-2 2.7c-1-1.1-3.6-2.9-7.1-2.9-4.8 0-8.8 3.8-8.8 9.2 0 4.484 3.277 7.975 7.06 8.89l.04.01 4.3-.1c.142-.033.284-.068.425-.106 2.455-.663 4.846-2.174 6.075-5.294H63.4z"></path>
    <path class="origamid-letter" fill="#FFF" d="M66.5 24.6h.5L79.5 4.9h.1v19.2h3.5V.4h-4.3C73.401 8.265 68.09 16.198 62.6 24c.1.034.202.066.304.096 1.115.336 2.313.504 3.596.504z"></path>
</svg>